# xmcd
#
# Track frame offsets:
#	150
#	15148
#	36585
#	52817
#	69340
#	80873
#	94977
#	116061
#	131654
#	147115
#	168514
#	183038
#	200411
#	216807
#	232391
#	247065
#	263132
#	278508
#	321500
#
# Disc length: 4470 seconds
#
# Revision: 0
# Processed by: cddbd v1.5.2PL0 Copyright (c) Steve Scherf et al.
# Submitted via: EasyCDDAExtractor 10.0.6.1
#
DISCID=1a117413
DTITLE=Big Bill Broonzy - The Complete Vogue Recordings - Disc 1
DYEAR=2005
DGENRE=Blues
TTITLE0=House Rent Stomp
TTITLE1=In The Evening
TTITLE2=The Moppin's Blues
TTITLE3=Hey, Hey, Baby
TTITLE4=Willie Mae Blues
TTITLE5=Black, Brown and White
TTITLE6=Back Water Blues
TTITLE7=Low Land Blues
TTITLE8=Low Down Blues
TTITLE9=Feelin' Low Down
TTITLE10=What I Used To Do
TTITLE11=Make My Getaway
TTITLE12=Blues In 1890
TTITLE13=Big Bill Blues
TTITLE14=Lonesome Road Blues
TTITLE15=When Did You Leave Heaven
TTITLE16=John Henry
TTITLE17=Hollerin' And Cryin' The Blues
TTITLE18=Down By The Riverside
EXTD=
EXTT0=
EXTT1=
EXTT2=
EXTT3=
EXTT4=
EXTT5=
EXTT6=
EXTT7=
EXTT8=
EXTT9=
EXTT10=
EXTT11=
EXTT12=
EXTT13=
EXTT14=
EXTT15=
EXTT16=
EXTT17=
EXTT18=
PLAYORDER=
